<svg id="Fill_Outline" height="512" viewBox="0 0 64 64" width="512" xmlns="http://www.w3.org/2000/svg" data-name="Fill Outline"><g id="Stroke_copy" data-name="Stroke copy"><path d="m27.3 8.29-1.41-1.41-2.12-2.12a6 6 0 0 0 -8.49 0l6.36 6.36-4.24 4.24-6.4-6.36a6 6 0 0 0 0 8.49l2.12 2.12 1.45 1.39a6 6 0 0 0 8.49 0l4.24 4.24 4.24-4.24-4.24-4.22a6 6 0 0 0 0-8.49z" fill="#aae1f9"/><path d="m59.83 43.65-1.42-1.42a4 4 0 0 0 -5.65 0l-4.25-4.23-4.24 4.24 4.24 4.25a4 4 0 0 0 0 5.65l1.42 1.42a4 4 0 0 0 5.66 0l-4.25-4.24 4.25-4.25 4.24 4.25a4 4 0 0 0 0-5.67z" fill="#aae1f9"/><path d="m50.64 35.87a3 3 0 0 0 -4.25-4.24 3 3 0 0 0 -4.24-4.25 3 3 0 1 0 -4.24-4.24 3 3 0 0 0 -4.24-4.24l-9.9 9.9-3.54 9.2-17.23 14.09v9.91h18.16l10.38-12.69 9.2-3.54z" fill="#f9e109"/><path d="m25.18 17.49a10 10 0 0 1 -1.27-12.59l-.14-.14a6 6 0 0 0 -8.49 0l6.36 6.36-4.24 4.24-6.4-6.36a6 6 0 0 0 0 8.49l2.12 2.12 1.45 1.39a6 6 0 0 0 8.49 0l4.24 4.24 2.83-2.82z" fill="#57b7eb"/><path d="m54.17 46.48-.71-.71a7.91 7.91 0 0 1 -2.31-5.15l-2.64-2.62-4.24 4.24 4.24 4.25a4 4 0 0 0 0 5.65l1.42 1.42a4 4 0 0 0 5.66 0l-4.25-4.24z" fill="#57b7eb"/><g fill="#fcbc04"><path d="m45.56 26.81a2.7 2.7 0 0 1 1.44 1.64 3.31 3.31 0 0 1 -.86 3.39l-4.74 4.74a2 2 0 0 1 0-2.83l3.6-3.54a3 3 0 0 0 .56-3.4z"/><path d="m49.8 31.05a2.74 2.74 0 0 1 1.49 1.64 3.33 3.33 0 0 1 -.87 3.39l-4.73 4.74a2 2 0 0 1 0-2.83l3.53-3.53a3 3 0 0 0 .58-3.41z"/><path d="m37.07 18.32a2.74 2.74 0 0 1 1.49 1.68 3.34 3.34 0 0 1 -.86 3.39l-4.7 4.7a2 2 0 0 1 0-2.83l3.53-3.53a3 3 0 0 0 .54-3.41z"/><path d="m41.31 22.56a2.73 2.73 0 0 1 1.49 1.65 3.31 3.31 0 0 1 -.86 3.39l-4.74 4.73a2 2 0 0 1 0-2.82l3.54-3.51a3 3 0 0 0 .57-3.44z"/><path d="m43.65 42.86a23.52 23.52 0 0 1 -23.4-4.92v.05l-17.25 14.1v9.91h18.16l10.38-12.69 9.2-3.54z"/></g></g><g id="Outline_copy" fill="#39519d" data-name="Outline copy"><path d="m60.54 42.94-1.42-1.41a5 5 0 0 0 -6.29-.64l-.78-.78a1 1 0 0 0 -1.41 0 1 1 0 0 0 0 1.42l1.41 1.41a1 1 0 0 0 1.41 0 3.09 3.09 0 0 1 4.25 0l1.41 1.42a3 3 0 0 1 .88 2.12 3 3 0 0 1 -.29 1.29l-3.42-3.41a1 1 0 0 0 -.7-.3 1 1 0 0 0 -.71.3l-4.24 4.24a1 1 0 0 0 0 1.41l3.41 3.42a3 3 0 0 1 -3.41-.59l-1.42-1.41a3 3 0 0 1 0-4.25 1 1 0 0 0 0-1.41l-1.41-1.41a1 1 0 1 0 -1.42 1.41l.78.78a5 5 0 0 0 .64 6.29l1.41 1.41a5 5 0 0 0 7.07 0 1 1 0 0 0 .3-.7 1 1 0 0 0 -.3-.71l-3.53-3.53 2.83-2.83 3.53 3.52a1 1 0 0 0 1.42 0 5 5 0 0 0 0-7.07z"/><path d="m52.51 33.75a4 4 0 0 0 -4.25-4 4 4 0 0 0 -4.26-4.23 2.26 2.26 0 0 0 0-.26 4 4 0 0 0 -4.25-4c0-.08 0-.17 0-.25a4 4 0 0 0 -6.75-2.82l-1.42 1.42-2.87-2.88a7 7 0 0 0 -.71-9.14l-3.53-3.54a7 7 0 0 0 -9.9 0 1 1 0 0 0 0 1.41l5.66 5.66-2.83 2.88-5.65-5.71a1 1 0 0 0 -1.42 0 7 7 0 0 0 0 9.9l3.54 3.54a7 7 0 0 0 9.14.65l.66.67a1 1 0 0 0 1.41 0 1 1 0 0 0 0-1.42l-1.31-1.32a1 1 0 0 0 -1.42 0 5 5 0 0 1 -7.07 0l-3.53-3.53a5 5 0 0 1 -.64-6.29l5.58 5.58a1 1 0 0 0 1.42 0l4.24-4.24a1 1 0 0 0 0-1.42l-5.58-5.58a5 5 0 0 1 6.29.63l3.53 3.54a5 5 0 0 1 0 7.07 1 1 0 0 0 0 1.42l3.54 3.51-7.07 7.07a1 1 0 0 0 -.23.35l-3.44 8.94-17 13.93a1 1 0 0 0 -.14 1.41 1 1 0 0 0 1.4.14l17.21-14.07a1 1 0 0 0 .3-.42l3.46-9 7.63-7.63 2.12-2.12a2 2 0 0 1 2.83 0 2 2 0 0 1 .59 1.4 2 2 0 0 1 -.59 1.42l-4.88 4.88a1 1 0 0 0 0 1.41 1 1 0 0 0 1.41 0l4.89-4.88a2 2 0 0 1 2.82 0 2 2 0 0 1 0 2.83l-5.38 5.38a1 1 0 0 0 .71 1.71 1 1 0 0 0 .7-.3l5.39-5.38a2 2 0 0 1 2.83 2.83l-5.39 5.4a1 1 0 0 0 0 1.42 1 1 0 0 0 1.42 0l5.38-5.39a2.06 2.06 0 0 1 2.83 0 2 2 0 0 1 .58 1.42 2 2 0 0 1 -.58 1.41l-9.75 9.75-9 3.46a1 1 0 0 0 -.42.3l-9.56 11.7a1 1 0 0 0 .14 1.4 1 1 0 0 0 .66.23 1 1 0 0 0 .77-.37l9.4-11.49 9-3.44a1 1 0 0 0 .34-.22l9.9-9.9a4 4 0 0 0 1.1-2.83z"/></g></svg>