<svg id="Layer_1" height="512" viewBox="0 0 512 512" width="512" xmlns="http://www.w3.org/2000/svg" data-name="Layer 1"><path d="m450.76 137.63-311.13 311.13-48.62-48.62 25.93-25.93 48.62-48.61v-.01l162.03-162.03h.01l48.61-48.62 25.93-25.93z" fill="#f8ec7d"/><path d="m376.21 114.94-48.61 48.62h-.01a114.573 114.573 0 0 0 -162.03 162.03v.01l-48.62 48.61c-71.59-71.59-71.59-187.67 0-259.27s187.68-71.59 259.27 0z" fill="#6fe3ff"/><path d="m327.59 163.56-162.03 162.03a114.573 114.573 0 0 1 162.03-162.03z" fill="#e48e66"/><path d="m86.767 395.9a6 6 0 0 0 0 8.486l48.62 48.614a6 6 0 0 0 8.486 0l311.127-311.127a6 6 0 0 0 0-8.486l-48.619-48.62a6 6 0 0 0 -8.486 0l-21.761 21.762c-74.107-69.61-191.034-68.229-263.434 4.171s-73.778 189.331-4.167 263.44zm315.373-298.4 40.134 40.135-26.444 26.439-8.137-8.136a6 6 0 0 0 -8.485 8.485l8.136 8.137-26.038 26.04-16.232-16.241a6 6 0 0 0 -8.488 8.484l16.234 16.242-26.037 26.037-8.142-8.136a6 6 0 1 0 -8.482 8.49l8.139 8.131-26.042 26.043-16.232-16.241a6 6 0 0 0 -8.488 8.484l16.234 16.242-26.037 26.037-8.142-8.136a6 6 0 0 0 -8.482 8.489l8.139 8.132-26.042 26.043-16.232-16.241a6 6 0 0 0 -8.488 8.484l16.234 16.242-26.037 26.037-8.142-8.136a6 6 0 0 0 -8.482 8.49l8.139 8.131-26.042 26.043-16.232-16.241a6 6 0 1 0 -8.488 8.484l16.234 16.242-26.04 26.04-40.13-40.135 70.307-70.3c.07-.069.137-.14.2-.213l161.625-161.627c.072-.066.142-.133.211-.2l48.61-48.62zm-236.462 219.486a108.571 108.571 0 0 1 153.308-153.308zm-67.323 24.97a6.022 6.022 0 0 0 1.634-.764l22.88-15.26a6 6 0 1 0 -6.658-9.984l-22.88 15.26a6.046 6.046 0 0 0 -1.012.855 177.393 177.393 0 0 1 -22.977-86.513h25.538a6 6 0 0 0 0-12h-25.2a176.6 176.6 0 0 1 47.34-110.045l16.58 16.578a6 6 0 0 0 8.486-8.486l-16.581-16.577a176.608 176.608 0 0 1 110.045-47.337v25.2a6 6 0 0 0 12 0v-25.541a177.415 177.415 0 0 1 86.513 22.977 6 6 0 0 0 -.855 1.012l-15.26 22.88a6 6 0 1 0 9.984 6.658l15.26-22.88a6.019 6.019 0 0 0 .765-1.633 177.064 177.064 0 0 1 23.689 18.664l-40.154 40.162a120.576 120.576 0 0 0 -170.31 170.31l-40.161 40.155a177.034 177.034 0 0 1 -18.666-23.691z" fill="#63316d"/></svg>